# Blender v2.80 (sub 41) OBJ File: ''
# www.blender.org
mtllib seed1.mtl
o Cube_Cube.001
v -1.000000 -1.000000 1.000000
v -1.000000 1.000000 1.000000
v -1.000000 -1.000000 -1.000000
v -1.000000 1.000000 -1.000000
v 1.000000 -1.000000 1.000000
v 1.000000 1.000000 1.000000
v 1.000000 -1.000000 -1.000000
v 1.000000 1.000000 -1.000000
v -0.807491 -0.807491 0.000000
v -0.807491 0.000000 0.807491
v -0.807491 0.807491 0.000000
v -0.807491 0.000000 -0.807491
v 0.000000 -0.807491 -0.807491
v 0.000000 0.807491 -0.807491
v 0.807491 0.000000 -0.807491
v 0.807491 -0.807491 0.000000
v 0.807491 0.807491 0.000000
v 0.807491 0.000000 0.807491
v 0.000000 -0.807491 0.807491
v 0.000000 0.807491 0.807491
v 0.000000 0.807491 0.000000
v 0.000000 -0.807491 0.000000
v 0.000000 0.000000 0.807491
v 0.807491 0.000000 0.000000
v 0.000000 0.000000 -0.807491
v -0.807491 0.000000 0.000000
vt 0.365418 0.166667
vt 0.500000 0.032085
vt 0.500000 0.166667
vt 0.032085 0.500000
vt 0.166667 0.365418
vt 0.166667 0.500000
vt 0.032085 0.166667
vt 0.166667 0.032085
vt 0.166667 0.166667
vt 0.500000 0.365418
vt 0.634582 0.500000
vt 0.500000 0.500000
vt 0.698752 0.166667
vt 0.833333 0.032085
vt 0.833333 0.166667
vt 0.166667 0.967915
vt 0.032085 0.833333
vt 0.166667 0.833333
vt 0.166667 0.698752
vt 0.000000 0.666667
vt 0.301248 0.833333
vt 0.333333 0.666667
vt 0.967915 0.166667
vt 1.000000 0.000000
vt 0.833333 0.301248
vt 1.000000 0.333333
vt 0.500000 0.634582
vt 0.666667 0.666667
vt 0.365418 0.500000
vt 0.333333 0.666667
vt 0.301248 0.166667
vt 0.333333 0.000000
vt 0.166667 0.301248
vt 0.333333 0.333333
vt 0.301248 0.500000
vt 0.166667 0.634582
vt 0.333333 0.666667
vt 0.634582 0.166667
vt 0.666667 0.000000
vt 0.500000 0.301248
vt 0.666667 0.333333
vt 0.333333 0.000000
vt 0.000000 0.333333
vt 0.000000 0.000000
vt 0.666667 0.333333
vt 0.666667 0.000000
vt 0.000000 1.000000
vt 0.333333 1.000000
vt 0.666667 0.333333
vt 0.333333 0.333333
vt 0.000000 0.666667
vt 0.333333 0.333333
vn -1.0000 0.0000 0.0000
vn 0.0000 0.0000 -1.0000
vn 1.0000 0.0000 0.0000
vn 0.0000 0.0000 1.0000
vn 0.0000 -1.0000 0.0000
vn 0.0000 1.0000 0.0000
vn -0.1574 0.9749 -0.1574
vn -0.1574 0.9749 0.1574
vn 0.1574 -0.9749 -0.1574
vn 0.1574 -0.9749 0.1574
vn 0.1574 0.1574 0.9749
vn -0.1574 0.1574 0.9749
vn 0.9749 0.1574 -0.1574
vn 0.9749 0.1574 0.1574
vn -0.1574 0.1574 -0.9749
vn 0.1574 0.1574 -0.9749
vn -0.9749 0.1574 0.1574
vn -0.9749 0.1574 -0.1574
vn -0.9749 -0.1574 0.1574
vn -0.1574 -0.1574 -0.9749
vn 0.9749 -0.1574 -0.1574
vn 0.1574 -0.1574 0.9749
vn -0.1574 -0.9749 -0.1574
vn 0.1574 0.9749 -0.1574
vn 0.1574 0.9749 0.1574
vn -0.1574 -0.9749 0.1574
vn -0.1574 -0.1574 0.9749
vn 0.9749 -0.1574 0.1574
vn 0.1574 -0.1574 -0.9749
vn -0.9749 -0.1574 -0.1574
usemtl Material.001
s off
f 11/1/1 12/2/1 26/3/1
f 14/4/2 15/5/2 25/6/2
f 17/7/3 18/8/3 24/9/3
f 20/10/4 10/11/4 23/12/4
f 16/13/5 19/14/5 22/15/5
f 11/16/6 20/17/6 21/18/6
f 17/19/7 20/17/7 6/20/7
f 14/21/8 17/19/8 8/22/8
f 14/21/6 11/16/6 21/18/6
f 9/23/9 19/14/9 1/24/9
f 13/25/10 9/23/10 3/26/10
f 13/25/5 16/13/5 22/15/5
f 19/27/11 10/11/11 1/28/11
f 18/29/12 19/27/12 5/30/12
f 18/29/4 20/10/4 23/12/4
f 16/31/13 18/8/13 5/32/13
f 15/33/14 16/31/14 7/34/14
f 15/33/3 17/7/3 24/9/3
f 13/35/15 15/5/15 7/34/15
f 12/36/16 13/35/16 3/37/16
f 12/36/2 14/4/2 25/6/2
f 9/38/17 12/2/17 3/39/17
f 10/40/18 9/38/18 1/41/18
f 10/40/1 11/1/1 26/3/1
f 11/1/19 4/42/19 12/2/19
f 14/4/20 8/43/20 15/5/20
f 17/7/21 6/44/21 18/8/21
f 20/10/22 2/45/22 10/11/22
f 16/13/23 5/46/23 19/14/23
f 11/16/24 2/47/24 20/17/24
f 17/19/6 21/18/6 20/17/6
f 14/21/6 21/18/6 17/19/6
f 14/21/25 4/48/25 11/16/25
f 9/23/5 22/15/5 19/14/5
f 13/25/5 22/15/5 9/23/5
f 13/25/26 7/49/26 16/13/26
f 19/27/4 23/12/4 10/11/4
f 18/29/4 23/12/4 19/27/4
f 18/29/27 6/50/27 20/10/27
f 16/31/3 24/9/3 18/8/3
f 15/33/3 24/9/3 16/31/3
f 15/33/28 8/43/28 17/7/28
f 13/35/2 25/6/2 15/5/2
f 12/36/2 25/6/2 13/35/2
f 12/36/29 4/51/29 14/4/29
f 9/38/1 26/3/1 12/2/1
f 10/40/1 26/3/1 9/38/1
f 10/40/30 2/52/30 11/1/30
